# hood section: cylindrical shell, axis along x, crown at the origin
v -0.120000 -0.180000 -0.033524
v -0.100000 -0.180000 -0.033524
v -0.080000 -0.180000 -0.033524
v -0.060000 -0.180000 -0.033524
v -0.040000 -0.180000 -0.033524
v -0.020000 -0.180000 -0.033524
v 0.000000 -0.180000 -0.033524
v 0.020000 -0.180000 -0.033524
v 0.040000 -0.180000 -0.033524
v 0.060000 -0.180000 -0.033524
v 0.080000 -0.180000 -0.033524
v 0.100000 -0.180000 -0.033524
v 0.120000 -0.180000 -0.033524
v -0.120000 -0.170419 -0.029939
v -0.100000 -0.170419 -0.029939
v -0.080000 -0.170419 -0.029939
v -0.060000 -0.170419 -0.029939
v -0.040000 -0.170419 -0.029939
v -0.020000 -0.170419 -0.029939
v 0.000000 -0.170419 -0.029939
v 0.020000 -0.170419 -0.029939
v 0.040000 -0.170419 -0.029939
v 0.060000 -0.170419 -0.029939
v 0.080000 -0.170419 -0.029939
v 0.100000 -0.170419 -0.029939
v 0.120000 -0.170419 -0.029939
v -0.120000 -0.160767 -0.026551
v -0.100000 -0.160767 -0.026551
v -0.080000 -0.160767 -0.026551
v -0.060000 -0.160767 -0.026551
v -0.040000 -0.160767 -0.026551
v -0.020000 -0.160767 -0.026551
v 0.000000 -0.160767 -0.026551
v 0.020000 -0.160767 -0.026551
v 0.040000 -0.160767 -0.026551
v 0.060000 -0.160767 -0.026551
v 0.080000 -0.160767 -0.026551
v 0.100000 -0.160767 -0.026551
v 0.120000 -0.160767 -0.026551
v -0.120000 -0.151048 -0.023361
v -0.100000 -0.151048 -0.023361
v -0.080000 -0.151048 -0.023361
v -0.060000 -0.151048 -0.023361
v -0.040000 -0.151048 -0.023361
v -0.020000 -0.151048 -0.023361
v 0.000000 -0.151048 -0.023361
v 0.020000 -0.151048 -0.023361
v 0.040000 -0.151048 -0.023361
v 0.060000 -0.151048 -0.023361
v 0.080000 -0.151048 -0.023361
v 0.100000 -0.151048 -0.023361
v 0.120000 -0.151048 -0.023361
v -0.120000 -0.141265 -0.020371
v -0.100000 -0.141265 -0.020371
v -0.080000 -0.141265 -0.020371
v -0.060000 -0.141265 -0.020371
v -0.040000 -0.141265 -0.020371
v -0.020000 -0.141265 -0.020371
v 0.000000 -0.141265 -0.020371
v 0.020000 -0.141265 -0.020371
v 0.040000 -0.141265 -0.020371
v 0.060000 -0.141265 -0.020371
v 0.080000 -0.141265 -0.020371
v 0.100000 -0.141265 -0.020371
v 0.120000 -0.141265 -0.020371
v -0.120000 -0.131423 -0.017581
v -0.100000 -0.131423 -0.017581
v -0.080000 -0.131423 -0.017581
v -0.060000 -0.131423 -0.017581
v -0.040000 -0.131423 -0.017581
v -0.020000 -0.131423 -0.017581
v 0.000000 -0.131423 -0.017581
v 0.020000 -0.131423 -0.017581
v 0.040000 -0.131423 -0.017581
v 0.060000 -0.131423 -0.017581
v 0.080000 -0.131423 -0.017581
v 0.100000 -0.131423 -0.017581
v 0.120000 -0.131423 -0.017581
v -0.120000 -0.121526 -0.014993
v -0.100000 -0.121526 -0.014993
v -0.080000 -0.121526 -0.014993
v -0.060000 -0.121526 -0.014993
v -0.040000 -0.121526 -0.014993
v -0.020000 -0.121526 -0.014993
v 0.000000 -0.121526 -0.014993
v 0.020000 -0.121526 -0.014993
v 0.040000 -0.121526 -0.014993
v 0.060000 -0.121526 -0.014993
v 0.080000 -0.121526 -0.014993
v 0.100000 -0.121526 -0.014993
v 0.120000 -0.121526 -0.014993
v -0.120000 -0.111579 -0.012609
v -0.100000 -0.111579 -0.012609
v -0.080000 -0.111579 -0.012609
v -0.060000 -0.111579 -0.012609
v -0.040000 -0.111579 -0.012609
v -0.020000 -0.111579 -0.012609
v 0.000000 -0.111579 -0.012609
v 0.020000 -0.111579 -0.012609
v 0.040000 -0.111579 -0.012609
v 0.060000 -0.111579 -0.012609
v 0.080000 -0.111579 -0.012609
v 0.100000 -0.111579 -0.012609
v 0.120000 -0.111579 -0.012609
v -0.120000 -0.101584 -0.010428
v -0.100000 -0.101584 -0.010428
v -0.080000 -0.101584 -0.010428
v -0.060000 -0.101584 -0.010428
v -0.040000 -0.101584 -0.010428
v -0.020000 -0.101584 -0.010428
v 0.000000 -0.101584 -0.010428
v 0.020000 -0.101584 -0.010428
v 0.040000 -0.101584 -0.010428
v 0.060000 -0.101584 -0.010428
v 0.080000 -0.101584 -0.010428
v 0.100000 -0.101584 -0.010428
v 0.120000 -0.101584 -0.010428
v -0.120000 -0.091548 -0.008452
v -0.100000 -0.091548 -0.008452
v -0.080000 -0.091548 -0.008452
v -0.060000 -0.091548 -0.008452
v -0.040000 -0.091548 -0.008452
v -0.020000 -0.091548 -0.008452
v 0.000000 -0.091548 -0.008452
v 0.020000 -0.091548 -0.008452
v 0.040000 -0.091548 -0.008452
v 0.060000 -0.091548 -0.008452
v 0.080000 -0.091548 -0.008452
v 0.100000 -0.091548 -0.008452
v 0.120000 -0.091548 -0.008452
v -0.120000 -0.081472 -0.006682
v -0.100000 -0.081472 -0.006682
v -0.080000 -0.081472 -0.006682
v -0.060000 -0.081472 -0.006682
v -0.040000 -0.081472 -0.006682
v -0.020000 -0.081472 -0.006682
v 0.000000 -0.081472 -0.006682
v 0.020000 -0.081472 -0.006682
v 0.040000 -0.081472 -0.006682
v 0.060000 -0.081472 -0.006682
v 0.080000 -0.081472 -0.006682
v 0.100000 -0.081472 -0.006682
v 0.120000 -0.081472 -0.006682
v -0.120000 -0.071363 -0.005119
v -0.100000 -0.071363 -0.005119
v -0.080000 -0.071363 -0.005119
v -0.060000 -0.071363 -0.005119
v -0.040000 -0.071363 -0.005119
v -0.020000 -0.071363 -0.005119
v 0.000000 -0.071363 -0.005119
v 0.020000 -0.071363 -0.005119
v 0.040000 -0.071363 -0.005119
v 0.060000 -0.071363 -0.005119
v 0.080000 -0.071363 -0.005119
v 0.100000 -0.071363 -0.005119
v 0.120000 -0.071363 -0.005119
v -0.120000 -0.061224 -0.003763
v -0.100000 -0.061224 -0.003763
v -0.080000 -0.061224 -0.003763
v -0.060000 -0.061224 -0.003763
v -0.040000 -0.061224 -0.003763
v -0.020000 -0.061224 -0.003763
v 0.000000 -0.061224 -0.003763
v 0.020000 -0.061224 -0.003763
v 0.040000 -0.061224 -0.003763
v 0.060000 -0.061224 -0.003763
v 0.080000 -0.061224 -0.003763
v 0.100000 -0.061224 -0.003763
v 0.120000 -0.061224 -0.003763
v -0.120000 -0.051059 -0.002614
v -0.100000 -0.051059 -0.002614
v -0.080000 -0.051059 -0.002614
v -0.060000 -0.051059 -0.002614
v -0.040000 -0.051059 -0.002614
v -0.020000 -0.051059 -0.002614
v 0.000000 -0.051059 -0.002614
v 0.020000 -0.051059 -0.002614
v 0.040000 -0.051059 -0.002614
v 0.060000 -0.051059 -0.002614
v 0.080000 -0.051059 -0.002614
v 0.100000 -0.051059 -0.002614
v 0.120000 -0.051059 -0.002614
v -0.120000 -0.040873 -0.001673
v -0.100000 -0.040873 -0.001673
v -0.080000 -0.040873 -0.001673
v -0.060000 -0.040873 -0.001673
v -0.040000 -0.040873 -0.001673
v -0.020000 -0.040873 -0.001673
v 0.000000 -0.040873 -0.001673
v 0.020000 -0.040873 -0.001673
v 0.040000 -0.040873 -0.001673
v 0.060000 -0.040873 -0.001673
v 0.080000 -0.040873 -0.001673
v 0.100000 -0.040873 -0.001673
v 0.120000 -0.040873 -0.001673
v -0.120000 -0.030670 -0.000942
v -0.100000 -0.030670 -0.000942
v -0.080000 -0.030670 -0.000942
v -0.060000 -0.030670 -0.000942
v -0.040000 -0.030670 -0.000942
v -0.020000 -0.030670 -0.000942
v 0.000000 -0.030670 -0.000942
v 0.020000 -0.030670 -0.000942
v 0.040000 -0.030670 -0.000942
v 0.060000 -0.030670 -0.000942
v 0.080000 -0.030670 -0.000942
v 0.100000 -0.030670 -0.000942
v 0.120000 -0.030670 -0.000942
v -0.120000 -0.020454 -0.000419
v -0.100000 -0.020454 -0.000419
v -0.080000 -0.020454 -0.000419
v -0.060000 -0.020454 -0.000419
v -0.040000 -0.020454 -0.000419
v -0.020000 -0.020454 -0.000419
v 0.000000 -0.020454 -0.000419
v 0.020000 -0.020454 -0.000419
v 0.040000 -0.020454 -0.000419
v 0.060000 -0.020454 -0.000419
v 0.080000 -0.020454 -0.000419
v 0.100000 -0.020454 -0.000419
v 0.120000 -0.020454 -0.000419
v -0.120000 -0.010229 -0.000105
v -0.100000 -0.010229 -0.000105
v -0.080000 -0.010229 -0.000105
v -0.060000 -0.010229 -0.000105
v -0.040000 -0.010229 -0.000105
v -0.020000 -0.010229 -0.000105
v 0.000000 -0.010229 -0.000105
v 0.020000 -0.010229 -0.000105
v 0.040000 -0.010229 -0.000105
v 0.060000 -0.010229 -0.000105
v 0.080000 -0.010229 -0.000105
v 0.100000 -0.010229 -0.000105
v 0.120000 -0.010229 -0.000105
v -0.120000 0.000000 0.000000
v -0.100000 0.000000 0.000000
v -0.080000 0.000000 0.000000
v -0.060000 0.000000 0.000000
v -0.040000 0.000000 0.000000
v -0.020000 0.000000 0.000000
v 0.000000 0.000000 0.000000
v 0.020000 0.000000 0.000000
v 0.040000 0.000000 0.000000
v 0.060000 0.000000 0.000000
v 0.080000 0.000000 0.000000
v 0.100000 0.000000 0.000000
v 0.120000 0.000000 0.000000
v -0.120000 0.010229 -0.000105
v -0.100000 0.010229 -0.000105
v -0.080000 0.010229 -0.000105
v -0.060000 0.010229 -0.000105
v -0.040000 0.010229 -0.000105
v -0.020000 0.010229 -0.000105
v 0.000000 0.010229 -0.000105
v 0.020000 0.010229 -0.000105
v 0.040000 0.010229 -0.000105
v 0.060000 0.010229 -0.000105
v 0.080000 0.010229 -0.000105
v 0.100000 0.010229 -0.000105
v 0.120000 0.010229 -0.000105
v -0.120000 0.020454 -0.000419
v -0.100000 0.020454 -0.000419
v -0.080000 0.020454 -0.000419
v -0.060000 0.020454 -0.000419
v -0.040000 0.020454 -0.000419
v -0.020000 0.020454 -0.000419
v 0.000000 0.020454 -0.000419
v 0.020000 0.020454 -0.000419
v 0.040000 0.020454 -0.000419
v 0.060000 0.020454 -0.000419
v 0.080000 0.020454 -0.000419
v 0.100000 0.020454 -0.000419
v 0.120000 0.020454 -0.000419
v -0.120000 0.030670 -0.000942
v -0.100000 0.030670 -0.000942
v -0.080000 0.030670 -0.000942
v -0.060000 0.030670 -0.000942
v -0.040000 0.030670 -0.000942
v -0.020000 0.030670 -0.000942
v 0.000000 0.030670 -0.000942
v 0.020000 0.030670 -0.000942
v 0.040000 0.030670 -0.000942
v 0.060000 0.030670 -0.000942
v 0.080000 0.030670 -0.000942
v 0.100000 0.030670 -0.000942
v 0.120000 0.030670 -0.000942
v -0.120000 0.040873 -0.001673
v -0.100000 0.040873 -0.001673
v -0.080000 0.040873 -0.001673
v -0.060000 0.040873 -0.001673
v -0.040000 0.040873 -0.001673
v -0.020000 0.040873 -0.001673
v 0.000000 0.040873 -0.001673
v 0.020000 0.040873 -0.001673
v 0.040000 0.040873 -0.001673
v 0.060000 0.040873 -0.001673
v 0.080000 0.040873 -0.001673
v 0.100000 0.040873 -0.001673
v 0.120000 0.040873 -0.001673
v -0.120000 0.051059 -0.002614
v -0.100000 0.051059 -0.002614
v -0.080000 0.051059 -0.002614
v -0.060000 0.051059 -0.002614
v -0.040000 0.051059 -0.002614
v -0.020000 0.051059 -0.002614
v 0.000000 0.051059 -0.002614
v 0.020000 0.051059 -0.002614
v 0.040000 0.051059 -0.002614
v 0.060000 0.051059 -0.002614
v 0.080000 0.051059 -0.002614
v 0.100000 0.051059 -0.002614
v 0.120000 0.051059 -0.002614
v -0.120000 0.061224 -0.003763
v -0.100000 0.061224 -0.003763
v -0.080000 0.061224 -0.003763
v -0.060000 0.061224 -0.003763
v -0.040000 0.061224 -0.003763
v -0.020000 0.061224 -0.003763
v 0.000000 0.061224 -0.003763
v 0.020000 0.061224 -0.003763
v 0.040000 0.061224 -0.003763
v 0.060000 0.061224 -0.003763
v 0.080000 0.061224 -0.003763
v 0.100000 0.061224 -0.003763
v 0.120000 0.061224 -0.003763
v -0.120000 0.071363 -0.005119
v -0.100000 0.071363 -0.005119
v -0.080000 0.071363 -0.005119
v -0.060000 0.071363 -0.005119
v -0.040000 0.071363 -0.005119
v -0.020000 0.071363 -0.005119
v 0.000000 0.071363 -0.005119
v 0.020000 0.071363 -0.005119
v 0.040000 0.071363 -0.005119
v 0.060000 0.071363 -0.005119
v 0.080000 0.071363 -0.005119
v 0.100000 0.071363 -0.005119
v 0.120000 0.071363 -0.005119
v -0.120000 0.081472 -0.006682
v -0.100000 0.081472 -0.006682
v -0.080000 0.081472 -0.006682
v -0.060000 0.081472 -0.006682
v -0.040000 0.081472 -0.006682
v -0.020000 0.081472 -0.006682
v 0.000000 0.081472 -0.006682
v 0.020000 0.081472 -0.006682
v 0.040000 0.081472 -0.006682
v 0.060000 0.081472 -0.006682
v 0.080000 0.081472 -0.006682
v 0.100000 0.081472 -0.006682
v 0.120000 0.081472 -0.006682
v -0.120000 0.091548 -0.008452
v -0.100000 0.091548 -0.008452
v -0.080000 0.091548 -0.008452
v -0.060000 0.091548 -0.008452
v -0.040000 0.091548 -0.008452
v -0.020000 0.091548 -0.008452
v 0.000000 0.091548 -0.008452
v 0.020000 0.091548 -0.008452
v 0.040000 0.091548 -0.008452
v 0.060000 0.091548 -0.008452
v 0.080000 0.091548 -0.008452
v 0.100000 0.091548 -0.008452
v 0.120000 0.091548 -0.008452
v -0.120000 0.101584 -0.010428
v -0.100000 0.101584 -0.010428
v -0.080000 0.101584 -0.010428
v -0.060000 0.101584 -0.010428
v -0.040000 0.101584 -0.010428
v -0.020000 0.101584 -0.010428
v 0.000000 0.101584 -0.010428
v 0.020000 0.101584 -0.010428
v 0.040000 0.101584 -0.010428
v 0.060000 0.101584 -0.010428
v 0.080000 0.101584 -0.010428
v 0.100000 0.101584 -0.010428
v 0.120000 0.101584 -0.010428
v -0.120000 0.111579 -0.012609
v -0.100000 0.111579 -0.012609
v -0.080000 0.111579 -0.012609
v -0.060000 0.111579 -0.012609
v -0.040000 0.111579 -0.012609
v -0.020000 0.111579 -0.012609
v 0.000000 0.111579 -0.012609
v 0.020000 0.111579 -0.012609
v 0.040000 0.111579 -0.012609
v 0.060000 0.111579 -0.012609
v 0.080000 0.111579 -0.012609
v 0.100000 0.111579 -0.012609
v 0.120000 0.111579 -0.012609
v -0.120000 0.121526 -0.014993
v -0.100000 0.121526 -0.014993
v -0.080000 0.121526 -0.014993
v -0.060000 0.121526 -0.014993
v -0.040000 0.121526 -0.014993
v -0.020000 0.121526 -0.014993
v 0.000000 0.121526 -0.014993
v 0.020000 0.121526 -0.014993
v 0.040000 0.121526 -0.014993
v 0.060000 0.121526 -0.014993
v 0.080000 0.121526 -0.014993
v 0.100000 0.121526 -0.014993
v 0.120000 0.121526 -0.014993
v -0.120000 0.131423 -0.017581
v -0.100000 0.131423 -0.017581
v -0.080000 0.131423 -0.017581
v -0.060000 0.131423 -0.017581
v -0.040000 0.131423 -0.017581
v -0.020000 0.131423 -0.017581
v 0.000000 0.131423 -0.017581
v 0.020000 0.131423 -0.017581
v 0.040000 0.131423 -0.017581
v 0.060000 0.131423 -0.017581
v 0.080000 0.131423 -0.017581
v 0.100000 0.131423 -0.017581
v 0.120000 0.131423 -0.017581
v -0.120000 0.141265 -0.020371
v -0.100000 0.141265 -0.020371
v -0.080000 0.141265 -0.020371
v -0.060000 0.141265 -0.020371
v -0.040000 0.141265 -0.020371
v -0.020000 0.141265 -0.020371
v 0.000000 0.141265 -0.020371
v 0.020000 0.141265 -0.020371
v 0.040000 0.141265 -0.020371
v 0.060000 0.141265 -0.020371
v 0.080000 0.141265 -0.020371
v 0.100000 0.141265 -0.020371
v 0.120000 0.141265 -0.020371
v -0.120000 0.151048 -0.023361
v -0.100000 0.151048 -0.023361
v -0.080000 0.151048 -0.023361
v -0.060000 0.151048 -0.023361
v -0.040000 0.151048 -0.023361
v -0.020000 0.151048 -0.023361
v 0.000000 0.151048 -0.023361
v 0.020000 0.151048 -0.023361
v 0.040000 0.151048 -0.023361
v 0.060000 0.151048 -0.023361
v 0.080000 0.151048 -0.023361
v 0.100000 0.151048 -0.023361
v 0.120000 0.151048 -0.023361
v -0.120000 0.160767 -0.026551
v -0.100000 0.160767 -0.026551
v -0.080000 0.160767 -0.026551
v -0.060000 0.160767 -0.026551
v -0.040000 0.160767 -0.026551
v -0.020000 0.160767 -0.026551
v 0.000000 0.160767 -0.026551
v 0.020000 0.160767 -0.026551
v 0.040000 0.160767 -0.026551
v 0.060000 0.160767 -0.026551
v 0.080000 0.160767 -0.026551
v 0.100000 0.160767 -0.026551
v 0.120000 0.160767 -0.026551
v -0.120000 0.170419 -0.029939
v -0.100000 0.170419 -0.029939
v -0.080000 0.170419 -0.029939
v -0.060000 0.170419 -0.029939
v -0.040000 0.170419 -0.029939
v -0.020000 0.170419 -0.029939
v 0.000000 0.170419 -0.029939
v 0.020000 0.170419 -0.029939
v 0.040000 0.170419 -0.029939
v 0.060000 0.170419 -0.029939
v 0.080000 0.170419 -0.029939
v 0.100000 0.170419 -0.029939
v 0.120000 0.170419 -0.029939
v -0.120000 0.180000 -0.033524
v -0.100000 0.180000 -0.033524
v -0.080000 0.180000 -0.033524
v -0.060000 0.180000 -0.033524
v -0.040000 0.180000 -0.033524
v -0.020000 0.180000 -0.033524
v 0.000000 0.180000 -0.033524
v 0.020000 0.180000 -0.033524
v 0.040000 0.180000 -0.033524
v 0.060000 0.180000 -0.033524
v 0.080000 0.180000 -0.033524
v 0.100000 0.180000 -0.033524
v 0.120000 0.180000 -0.033524
v -0.120000 -0.177840 -0.039122
v -0.100000 -0.177840 -0.039122
v -0.080000 -0.177840 -0.039122
v -0.060000 -0.177840 -0.039122
v -0.040000 -0.177840 -0.039122
v -0.020000 -0.177840 -0.039122
v 0.000000 -0.177840 -0.039122
v 0.020000 -0.177840 -0.039122
v 0.040000 -0.177840 -0.039122
v 0.060000 -0.177840 -0.039122
v 0.080000 -0.177840 -0.039122
v 0.100000 -0.177840 -0.039122
v 0.120000 -0.177840 -0.039122
v -0.120000 -0.168374 -0.035580
v -0.100000 -0.168374 -0.035580
v -0.080000 -0.168374 -0.035580
v -0.060000 -0.168374 -0.035580
v -0.040000 -0.168374 -0.035580
v -0.020000 -0.168374 -0.035580
v 0.000000 -0.168374 -0.035580
v 0.020000 -0.168374 -0.035580
v 0.040000 -0.168374 -0.035580
v 0.060000 -0.168374 -0.035580
v 0.080000 -0.168374 -0.035580
v 0.100000 -0.168374 -0.035580
v 0.120000 -0.168374 -0.035580
v -0.120000 -0.158838 -0.032232
v -0.100000 -0.158838 -0.032232
v -0.080000 -0.158838 -0.032232
v -0.060000 -0.158838 -0.032232
v -0.040000 -0.158838 -0.032232
v -0.020000 -0.158838 -0.032232
v 0.000000 -0.158838 -0.032232
v 0.020000 -0.158838 -0.032232
v 0.040000 -0.158838 -0.032232
v 0.060000 -0.158838 -0.032232
v 0.080000 -0.158838 -0.032232
v 0.100000 -0.158838 -0.032232
v 0.120000 -0.158838 -0.032232
v -0.120000 -0.149235 -0.029081
v -0.100000 -0.149235 -0.029081
v -0.080000 -0.149235 -0.029081
v -0.060000 -0.149235 -0.029081
v -0.040000 -0.149235 -0.029081
v -0.020000 -0.149235 -0.029081
v 0.000000 -0.149235 -0.029081
v 0.020000 -0.149235 -0.029081
v 0.040000 -0.149235 -0.029081
v 0.060000 -0.149235 -0.029081
v 0.080000 -0.149235 -0.029081
v 0.100000 -0.149235 -0.029081
v 0.120000 -0.149235 -0.029081
v -0.120000 -0.139570 -0.026126
v -0.100000 -0.139570 -0.026126
v -0.080000 -0.139570 -0.026126
v -0.060000 -0.139570 -0.026126
v -0.040000 -0.139570 -0.026126
v -0.020000 -0.139570 -0.026126
v 0.000000 -0.139570 -0.026126
v 0.020000 -0.139570 -0.026126
v 0.040000 -0.139570 -0.026126
v 0.060000 -0.139570 -0.026126
v 0.080000 -0.139570 -0.026126
v 0.100000 -0.139570 -0.026126
v 0.120000 -0.139570 -0.026126
v -0.120000 -0.129846 -0.023370
v -0.100000 -0.129846 -0.023370
v -0.080000 -0.129846 -0.023370
v -0.060000 -0.129846 -0.023370
v -0.040000 -0.129846 -0.023370
v -0.020000 -0.129846 -0.023370
v 0.000000 -0.129846 -0.023370
v 0.020000 -0.129846 -0.023370
v 0.040000 -0.129846 -0.023370
v 0.060000 -0.129846 -0.023370
v 0.080000 -0.129846 -0.023370
v 0.100000 -0.129846 -0.023370
v 0.120000 -0.129846 -0.023370
v -0.120000 -0.120068 -0.020814
v -0.100000 -0.120068 -0.020814
v -0.080000 -0.120068 -0.020814
v -0.060000 -0.120068 -0.020814
v -0.040000 -0.120068 -0.020814
v -0.020000 -0.120068 -0.020814
v 0.000000 -0.120068 -0.020814
v 0.020000 -0.120068 -0.020814
v 0.040000 -0.120068 -0.020814
v 0.060000 -0.120068 -0.020814
v 0.080000 -0.120068 -0.020814
v 0.100000 -0.120068 -0.020814
v 0.120000 -0.120068 -0.020814
v -0.120000 -0.110240 -0.018458
v -0.100000 -0.110240 -0.018458
v -0.080000 -0.110240 -0.018458
v -0.060000 -0.110240 -0.018458
v -0.040000 -0.110240 -0.018458
v -0.020000 -0.110240 -0.018458
v 0.000000 -0.110240 -0.018458
v 0.020000 -0.110240 -0.018458
v 0.040000 -0.110240 -0.018458
v 0.060000 -0.110240 -0.018458
v 0.080000 -0.110240 -0.018458
v 0.100000 -0.110240 -0.018458
v 0.120000 -0.110240 -0.018458
v -0.120000 -0.100365 -0.016303
v -0.100000 -0.100365 -0.016303
v -0.080000 -0.100365 -0.016303
v -0.060000 -0.100365 -0.016303
v -0.040000 -0.100365 -0.016303
v -0.020000 -0.100365 -0.016303
v 0.000000 -0.100365 -0.016303
v 0.020000 -0.100365 -0.016303
v 0.040000 -0.100365 -0.016303
v 0.060000 -0.100365 -0.016303
v 0.080000 -0.100365 -0.016303
v 0.100000 -0.100365 -0.016303
v 0.120000 -0.100365 -0.016303
v -0.120000 -0.090449 -0.014351
v -0.100000 -0.090449 -0.014351
v -0.080000 -0.090449 -0.014351
v -0.060000 -0.090449 -0.014351
v -0.040000 -0.090449 -0.014351
v -0.020000 -0.090449 -0.014351
v 0.000000 -0.090449 -0.014351
v 0.020000 -0.090449 -0.014351
v 0.040000 -0.090449 -0.014351
v 0.060000 -0.090449 -0.014351
v 0.080000 -0.090449 -0.014351
v 0.100000 -0.090449 -0.014351
v 0.120000 -0.090449 -0.014351
v -0.120000 -0.080495 -0.012602
v -0.100000 -0.080495 -0.012602
v -0.080000 -0.080495 -0.012602
v -0.060000 -0.080495 -0.012602
v -0.040000 -0.080495 -0.012602
v -0.020000 -0.080495 -0.012602
v 0.000000 -0.080495 -0.012602
v 0.020000 -0.080495 -0.012602
v 0.040000 -0.080495 -0.012602
v 0.060000 -0.080495 -0.012602
v 0.080000 -0.080495 -0.012602
v 0.100000 -0.080495 -0.012602
v 0.120000 -0.080495 -0.012602
v -0.120000 -0.070507 -0.011057
v -0.100000 -0.070507 -0.011057
v -0.080000 -0.070507 -0.011057
v -0.060000 -0.070507 -0.011057
v -0.040000 -0.070507 -0.011057
v -0.020000 -0.070507 -0.011057
v 0.000000 -0.070507 -0.011057
v 0.020000 -0.070507 -0.011057
v 0.040000 -0.070507 -0.011057
v 0.060000 -0.070507 -0.011057
v 0.080000 -0.070507 -0.011057
v 0.100000 -0.070507 -0.011057
v 0.120000 -0.070507 -0.011057
v -0.120000 -0.060489 -0.009717
v -0.100000 -0.060489 -0.009717
v -0.080000 -0.060489 -0.009717
v -0.060000 -0.060489 -0.009717
v -0.040000 -0.060489 -0.009717
v -0.020000 -0.060489 -0.009717
v 0.000000 -0.060489 -0.009717
v 0.020000 -0.060489 -0.009717
v 0.040000 -0.060489 -0.009717
v 0.060000 -0.060489 -0.009717
v 0.080000 -0.060489 -0.009717
v 0.100000 -0.060489 -0.009717
v 0.120000 -0.060489 -0.009717
v -0.120000 -0.050446 -0.008583
v -0.100000 -0.050446 -0.008583
v -0.080000 -0.050446 -0.008583
v -0.060000 -0.050446 -0.008583
v -0.040000 -0.050446 -0.008583
v -0.020000 -0.050446 -0.008583
v 0.000000 -0.050446 -0.008583
v 0.020000 -0.050446 -0.008583
v 0.040000 -0.050446 -0.008583
v 0.060000 -0.050446 -0.008583
v 0.080000 -0.050446 -0.008583
v 0.100000 -0.050446 -0.008583
v 0.120000 -0.050446 -0.008583
v -0.120000 -0.040383 -0.007653
v -0.100000 -0.040383 -0.007653
v -0.080000 -0.040383 -0.007653
v -0.060000 -0.040383 -0.007653
v -0.040000 -0.040383 -0.007653
v -0.020000 -0.040383 -0.007653
v 0.000000 -0.040383 -0.007653
v 0.020000 -0.040383 -0.007653
v 0.040000 -0.040383 -0.007653
v 0.060000 -0.040383 -0.007653
v 0.080000 -0.040383 -0.007653
v 0.100000 -0.040383 -0.007653
v 0.120000 -0.040383 -0.007653
v -0.120000 -0.030302 -0.006930
v -0.100000 -0.030302 -0.006930
v -0.080000 -0.030302 -0.006930
v -0.060000 -0.030302 -0.006930
v -0.040000 -0.030302 -0.006930
v -0.020000 -0.030302 -0.006930
v 0.000000 -0.030302 -0.006930
v 0.020000 -0.030302 -0.006930
v 0.040000 -0.030302 -0.006930
v 0.060000 -0.030302 -0.006930
v 0.080000 -0.030302 -0.006930
v 0.100000 -0.030302 -0.006930
v 0.120000 -0.030302 -0.006930
v -0.120000 -0.020208 -0.006414
v -0.100000 -0.020208 -0.006414
v -0.080000 -0.020208 -0.006414
v -0.060000 -0.020208 -0.006414
v -0.040000 -0.020208 -0.006414
v -0.020000 -0.020208 -0.006414
v 0.000000 -0.020208 -0.006414
v 0.020000 -0.020208 -0.006414
v 0.040000 -0.020208 -0.006414
v 0.060000 -0.020208 -0.006414
v 0.080000 -0.020208 -0.006414
v 0.100000 -0.020208 -0.006414
v 0.120000 -0.020208 -0.006414
v -0.120000 -0.010106 -0.006103
v -0.100000 -0.010106 -0.006103
v -0.080000 -0.010106 -0.006103
v -0.060000 -0.010106 -0.006103
v -0.040000 -0.010106 -0.006103
v -0.020000 -0.010106 -0.006103
v 0.000000 -0.010106 -0.006103
v 0.020000 -0.010106 -0.006103
v 0.040000 -0.010106 -0.006103
v 0.060000 -0.010106 -0.006103
v 0.080000 -0.010106 -0.006103
v 0.100000 -0.010106 -0.006103
v 0.120000 -0.010106 -0.006103
v -0.120000 0.000000 -0.006000
v -0.100000 0.000000 -0.006000
v -0.080000 0.000000 -0.006000
v -0.060000 0.000000 -0.006000
v -0.040000 0.000000 -0.006000
v -0.020000 0.000000 -0.006000
v 0.000000 0.000000 -0.006000
v 0.020000 0.000000 -0.006000
v 0.040000 0.000000 -0.006000
v 0.060000 0.000000 -0.006000
v 0.080000 0.000000 -0.006000
v 0.100000 0.000000 -0.006000
v 0.120000 0.000000 -0.006000
v -0.120000 0.010106 -0.006103
v -0.100000 0.010106 -0.006103
v -0.080000 0.010106 -0.006103
v -0.060000 0.010106 -0.006103
v -0.040000 0.010106 -0.006103
v -0.020000 0.010106 -0.006103
v 0.000000 0.010106 -0.006103
v 0.020000 0.010106 -0.006103
v 0.040000 0.010106 -0.006103
v 0.060000 0.010106 -0.006103
v 0.080000 0.010106 -0.006103
v 0.100000 0.010106 -0.006103
v 0.120000 0.010106 -0.006103
v -0.120000 0.020208 -0.006414
v -0.100000 0.020208 -0.006414
v -0.080000 0.020208 -0.006414
v -0.060000 0.020208 -0.006414
v -0.040000 0.020208 -0.006414
v -0.020000 0.020208 -0.006414
v 0.000000 0.020208 -0.006414
v 0.020000 0.020208 -0.006414
v 0.040000 0.020208 -0.006414
v 0.060000 0.020208 -0.006414
v 0.080000 0.020208 -0.006414
v 0.100000 0.020208 -0.006414
v 0.120000 0.020208 -0.006414
v -0.120000 0.030302 -0.006930
v -0.100000 0.030302 -0.006930
v -0.080000 0.030302 -0.006930
v -0.060000 0.030302 -0.006930
v -0.040000 0.030302 -0.006930
v -0.020000 0.030302 -0.006930
v 0.000000 0.030302 -0.006930
v 0.020000 0.030302 -0.006930
v 0.040000 0.030302 -0.006930
v 0.060000 0.030302 -0.006930
v 0.080000 0.030302 -0.006930
v 0.100000 0.030302 -0.006930
v 0.120000 0.030302 -0.006930
v -0.120000 0.040383 -0.007653
v -0.100000 0.040383 -0.007653
v -0.080000 0.040383 -0.007653
v -0.060000 0.040383 -0.007653
v -0.040000 0.040383 -0.007653
v -0.020000 0.040383 -0.007653
v 0.000000 0.040383 -0.007653
v 0.020000 0.040383 -0.007653
v 0.040000 0.040383 -0.007653
v 0.060000 0.040383 -0.007653
v 0.080000 0.040383 -0.007653
v 0.100000 0.040383 -0.007653
v 0.120000 0.040383 -0.007653
v -0.120000 0.050446 -0.008583
v -0.100000 0.050446 -0.008583
v -0.080000 0.050446 -0.008583
v -0.060000 0.050446 -0.008583
v -0.040000 0.050446 -0.008583
v -0.020000 0.050446 -0.008583
v 0.000000 0.050446 -0.008583
v 0.020000 0.050446 -0.008583
v 0.040000 0.050446 -0.008583
v 0.060000 0.050446 -0.008583
v 0.080000 0.050446 -0.008583
v 0.100000 0.050446 -0.008583
v 0.120000 0.050446 -0.008583
v -0.120000 0.060489 -0.009717
v -0.100000 0.060489 -0.009717
v -0.080000 0.060489 -0.009717
v -0.060000 0.060489 -0.009717
v -0.040000 0.060489 -0.009717
v -0.020000 0.060489 -0.009717
v 0.000000 0.060489 -0.009717
v 0.020000 0.060489 -0.009717
v 0.040000 0.060489 -0.009717
v 0.060000 0.060489 -0.009717
v 0.080000 0.060489 -0.009717
v 0.100000 0.060489 -0.009717
v 0.120000 0.060489 -0.009717
v -0.120000 0.070507 -0.011057
v -0.100000 0.070507 -0.011057
v -0.080000 0.070507 -0.011057
v -0.060000 0.070507 -0.011057
v -0.040000 0.070507 -0.011057
v -0.020000 0.070507 -0.011057
v 0.000000 0.070507 -0.011057
v 0.020000 0.070507 -0.011057
v 0.040000 0.070507 -0.011057
v 0.060000 0.070507 -0.011057
v 0.080000 0.070507 -0.011057
v 0.100000 0.070507 -0.011057
v 0.120000 0.070507 -0.011057
v -0.120000 0.080495 -0.012602
v -0.100000 0.080495 -0.012602
v -0.080000 0.080495 -0.012602
v -0.060000 0.080495 -0.012602
v -0.040000 0.080495 -0.012602
v -0.020000 0.080495 -0.012602
v 0.000000 0.080495 -0.012602
v 0.020000 0.080495 -0.012602
v 0.040000 0.080495 -0.012602
v 0.060000 0.080495 -0.012602
v 0.080000 0.080495 -0.012602
v 0.100000 0.080495 -0.012602
v 0.120000 0.080495 -0.012602
v -0.120000 0.090449 -0.014351
v -0.100000 0.090449 -0.014351
v -0.080000 0.090449 -0.014351
v -0.060000 0.090449 -0.014351
v -0.040000 0.090449 -0.014351
v -0.020000 0.090449 -0.014351
v 0.000000 0.090449 -0.014351
v 0.020000 0.090449 -0.014351
v 0.040000 0.090449 -0.014351
v 0.060000 0.090449 -0.014351
v 0.080000 0.090449 -0.014351
v 0.100000 0.090449 -0.014351
v 0.120000 0.090449 -0.014351
v -0.120000 0.100365 -0.016303
v -0.100000 0.100365 -0.016303
v -0.080000 0.100365 -0.016303
v -0.060000 0.100365 -0.016303
v -0.040000 0.100365 -0.016303
v -0.020000 0.100365 -0.016303
v 0.000000 0.100365 -0.016303
v 0.020000 0.100365 -0.016303
v 0.040000 0.100365 -0.016303
v 0.060000 0.100365 -0.016303
v 0.080000 0.100365 -0.016303
v 0.100000 0.100365 -0.016303
v 0.120000 0.100365 -0.016303
v -0.120000 0.110240 -0.018458
v -0.100000 0.110240 -0.018458
v -0.080000 0.110240 -0.018458
v -0.060000 0.110240 -0.018458
v -0.040000 0.110240 -0.018458
v -0.020000 0.110240 -0.018458
v 0.000000 0.110240 -0.018458
v 0.020000 0.110240 -0.018458
v 0.040000 0.110240 -0.018458
v 0.060000 0.110240 -0.018458
v 0.080000 0.110240 -0.018458
v 0.100000 0.110240 -0.018458
v 0.120000 0.110240 -0.018458
v -0.120000 0.120068 -0.020814
v -0.100000 0.120068 -0.020814
v -0.080000 0.120068 -0.020814
v -0.060000 0.120068 -0.020814
v -0.040000 0.120068 -0.020814
v -0.020000 0.120068 -0.020814
v 0.000000 0.120068 -0.020814
v 0.020000 0.120068 -0.020814
v 0.040000 0.120068 -0.020814
v 0.060000 0.120068 -0.020814
v 0.080000 0.120068 -0.020814
v 0.100000 0.120068 -0.020814
v 0.120000 0.120068 -0.020814
v -0.120000 0.129846 -0.023370
v -0.100000 0.129846 -0.023370
v -0.080000 0.129846 -0.023370
v -0.060000 0.129846 -0.023370
v -0.040000 0.129846 -0.023370
v -0.020000 0.129846 -0.023370
v 0.000000 0.129846 -0.023370
v 0.020000 0.129846 -0.023370
v 0.040000 0.129846 -0.023370
v 0.060000 0.129846 -0.023370
v 0.080000 0.129846 -0.023370
v 0.100000 0.129846 -0.023370
v 0.120000 0.129846 -0.023370
v -0.120000 0.139570 -0.026126
v -0.100000 0.139570 -0.026126
v -0.080000 0.139570 -0.026126
v -0.060000 0.139570 -0.026126
v -0.040000 0.139570 -0.026126
v -0.020000 0.139570 -0.026126
v 0.000000 0.139570 -0.026126
v 0.020000 0.139570 -0.026126
v 0.040000 0.139570 -0.026126
v 0.060000 0.139570 -0.026126
v 0.080000 0.139570 -0.026126
v 0.100000 0.139570 -0.026126
v 0.120000 0.139570 -0.026126
v -0.120000 0.149235 -0.029081
v -0.100000 0.149235 -0.029081
v -0.080000 0.149235 -0.029081
v -0.060000 0.149235 -0.029081
v -0.040000 0.149235 -0.029081
v -0.020000 0.149235 -0.029081
v 0.000000 0.149235 -0.029081
v 0.020000 0.149235 -0.029081
v 0.040000 0.149235 -0.029081
v 0.060000 0.149235 -0.029081
v 0.080000 0.149235 -0.029081
v 0.100000 0.149235 -0.029081
v 0.120000 0.149235 -0.029081
v -0.120000 0.158838 -0.032232
v -0.100000 0.158838 -0.032232
v -0.080000 0.158838 -0.032232
v -0.060000 0.158838 -0.032232
v -0.040000 0.158838 -0.032232
v -0.020000 0.158838 -0.032232
v 0.000000 0.158838 -0.032232
v 0.020000 0.158838 -0.032232
v 0.040000 0.158838 -0.032232
v 0.060000 0.158838 -0.032232
v 0.080000 0.158838 -0.032232
v 0.100000 0.158838 -0.032232
v 0.120000 0.158838 -0.032232
v -0.120000 0.168374 -0.035580
v -0.100000 0.168374 -0.035580
v -0.080000 0.168374 -0.035580
v -0.060000 0.168374 -0.035580
v -0.040000 0.168374 -0.035580
v -0.020000 0.168374 -0.035580
v 0.000000 0.168374 -0.035580
v 0.020000 0.168374 -0.035580
v 0.040000 0.168374 -0.035580
v 0.060000 0.168374 -0.035580
v 0.080000 0.168374 -0.035580
v 0.100000 0.168374 -0.035580
v 0.120000 0.168374 -0.035580
v -0.120000 0.177840 -0.039122
v -0.100000 0.177840 -0.039122
v -0.080000 0.177840 -0.039122
v -0.060000 0.177840 -0.039122
v -0.040000 0.177840 -0.039122
v -0.020000 0.177840 -0.039122
v 0.000000 0.177840 -0.039122
v 0.020000 0.177840 -0.039122
v 0.040000 0.177840 -0.039122
v 0.060000 0.177840 -0.039122
v 0.080000 0.177840 -0.039122
v 0.100000 0.177840 -0.039122
v 0.120000 0.177840 -0.039122
f 1 15 14
f 1 2 15
f 482 495 496
f 482 496 483
f 2 16 15
f 2 3 16
f 483 496 497
f 483 497 484
f 3 17 16
f 3 4 17
f 484 497 498
f 484 498 485
f 4 18 17
f 4 5 18
f 485 498 499
f 485 499 486
f 5 19 18
f 5 6 19
f 486 499 500
f 486 500 487
f 6 20 19
f 6 7 20
f 487 500 501
f 487 501 488
f 7 21 20
f 7 8 21
f 488 501 502
f 488 502 489
f 8 22 21
f 8 9 22
f 489 502 503
f 489 503 490
f 9 23 22
f 9 10 23
f 490 503 504
f 490 504 491
f 10 24 23
f 10 11 24
f 491 504 505
f 491 505 492
f 11 25 24
f 11 12 25
f 492 505 506
f 492 506 493
f 12 26 25
f 12 13 26
f 493 506 507
f 493 507 494
f 14 28 27
f 14 15 28
f 495 508 509
f 495 509 496
f 15 29 28
f 15 16 29
f 496 509 510
f 496 510 497
f 16 30 29
f 16 17 30
f 497 510 511
f 497 511 498
f 17 31 30
f 17 18 31
f 498 511 512
f 498 512 499
f 18 32 31
f 18 19 32
f 499 512 513
f 499 513 500
f 19 33 32
f 19 20 33
f 500 513 514
f 500 514 501
f 20 34 33
f 20 21 34
f 501 514 515
f 501 515 502
f 21 35 34
f 21 22 35
f 502 515 516
f 502 516 503
f 22 36 35
f 22 23 36
f 503 516 517
f 503 517 504
f 23 37 36
f 23 24 37
f 504 517 518
f 504 518 505
f 24 38 37
f 24 25 38
f 505 518 519
f 505 519 506
f 25 39 38
f 25 26 39
f 506 519 520
f 506 520 507
f 27 41 40
f 27 28 41
f 508 521 522
f 508 522 509
f 28 42 41
f 28 29 42
f 509 522 523
f 509 523 510
f 29 43 42
f 29 30 43
f 510 523 524
f 510 524 511
f 30 44 43
f 30 31 44
f 511 524 525
f 511 525 512
f 31 45 44
f 31 32 45
f 512 525 526
f 512 526 513
f 32 46 45
f 32 33 46
f 513 526 527
f 513 527 514
f 33 47 46
f 33 34 47
f 514 527 528
f 514 528 515
f 34 48 47
f 34 35 48
f 515 528 529
f 515 529 516
f 35 49 48
f 35 36 49
f 516 529 530
f 516 530 517
f 36 50 49
f 36 37 50
f 517 530 531
f 517 531 518
f 37 51 50
f 37 38 51
f 518 531 532
f 518 532 519
f 38 52 51
f 38 39 52
f 519 532 533
f 519 533 520
f 40 54 53
f 40 41 54
f 521 534 535
f 521 535 522
f 41 55 54
f 41 42 55
f 522 535 536
f 522 536 523
f 42 56 55
f 42 43 56
f 523 536 537
f 523 537 524
f 43 57 56
f 43 44 57
f 524 537 538
f 524 538 525
f 44 58 57
f 44 45 58
f 525 538 539
f 525 539 526
f 45 59 58
f 45 46 59
f 526 539 540
f 526 540 527
f 46 60 59
f 46 47 60
f 527 540 541
f 527 541 528
f 47 61 60
f 47 48 61
f 528 541 542
f 528 542 529
f 48 62 61
f 48 49 62
f 529 542 543
f 529 543 530
f 49 63 62
f 49 50 63
f 530 543 544
f 530 544 531
f 50 64 63
f 50 51 64
f 531 544 545
f 531 545 532
f 51 65 64
f 51 52 65
f 532 545 546
f 532 546 533
f 53 67 66
f 53 54 67
f 534 547 548
f 534 548 535
f 54 68 67
f 54 55 68
f 535 548 549
f 535 549 536
f 55 69 68
f 55 56 69
f 536 549 550
f 536 550 537
f 56 70 69
f 56 57 70
f 537 550 551
f 537 551 538
f 57 71 70
f 57 58 71
f 538 551 552
f 538 552 539
f 58 72 71
f 58 59 72
f 539 552 553
f 539 553 540
f 59 73 72
f 59 60 73
f 540 553 554
f 540 554 541
f 60 74 73
f 60 61 74
f 541 554 555
f 541 555 542
f 61 75 74
f 61 62 75
f 542 555 556
f 542 556 543
f 62 76 75
f 62 63 76
f 543 556 557
f 543 557 544
f 63 77 76
f 63 64 77
f 544 557 558
f 544 558 545
f 64 78 77
f 64 65 78
f 545 558 559
f 545 559 546
f 66 80 79
f 66 67 80
f 547 560 561
f 547 561 548
f 67 81 80
f 67 68 81
f 548 561 562
f 548 562 549
f 68 82 81
f 68 69 82
f 549 562 563
f 549 563 550
f 69 83 82
f 69 70 83
f 550 563 564
f 550 564 551
f 70 84 83
f 70 71 84
f 551 564 565
f 551 565 552
f 71 85 84
f 71 72 85
f 552 565 566
f 552 566 553
f 72 86 85
f 72 73 86
f 553 566 567
f 553 567 554
f 73 87 86
f 73 74 87
f 554 567 568
f 554 568 555
f 74 88 87
f 74 75 88
f 555 568 569
f 555 569 556
f 75 89 88
f 75 76 89
f 556 569 570
f 556 570 557
f 76 90 89
f 76 77 90
f 557 570 571
f 557 571 558
f 77 91 90
f 77 78 91
f 558 571 572
f 558 572 559
f 79 93 92
f 79 80 93
f 560 573 574
f 560 574 561
f 80 94 93
f 80 81 94
f 561 574 575
f 561 575 562
f 81 95 94
f 81 82 95
f 562 575 576
f 562 576 563
f 82 96 95
f 82 83 96
f 563 576 577
f 563 577 564
f 83 97 96
f 83 84 97
f 564 577 578
f 564 578 565
f 84 98 97
f 84 85 98
f 565 578 579
f 565 579 566
f 85 99 98
f 85 86 99
f 566 579 580
f 566 580 567
f 86 100 99
f 86 87 100
f 567 580 581
f 567 581 568
f 87 101 100
f 87 88 101
f 568 581 582
f 568 582 569
f 88 102 101
f 88 89 102
f 569 582 583
f 569 583 570
f 89 103 102
f 89 90 103
f 570 583 584
f 570 584 571
f 90 104 103
f 90 91 104
f 571 584 585
f 571 585 572
f 92 106 105
f 92 93 106
f 573 586 587
f 573 587 574
f 93 107 106
f 93 94 107
f 574 587 588
f 574 588 575
f 94 108 107
f 94 95 108
f 575 588 589
f 575 589 576
f 95 109 108
f 95 96 109
f 576 589 590
f 576 590 577
f 96 110 109
f 96 97 110
f 577 590 591
f 577 591 578
f 97 111 110
f 97 98 111
f 578 591 592
f 578 592 579
f 98 112 111
f 98 99 112
f 579 592 593
f 579 593 580
f 99 113 112
f 99 100 113
f 580 593 594
f 580 594 581
f 100 114 113
f 100 101 114
f 581 594 595
f 581 595 582
f 101 115 114
f 101 102 115
f 582 595 596
f 582 596 583
f 102 116 115
f 102 103 116
f 583 596 597
f 583 597 584
f 103 117 116
f 103 104 117
f 584 597 598
f 584 598 585
f 105 119 118
f 105 106 119
f 586 599 600
f 586 600 587
f 106 120 119
f 106 107 120
f 587 600 601
f 587 601 588
f 107 121 120
f 107 108 121
f 588 601 602
f 588 602 589
f 108 122 121
f 108 109 122
f 589 602 603
f 589 603 590
f 109 123 122
f 109 110 123
f 590 603 604
f 590 604 591
f 110 124 123
f 110 111 124
f 591 604 605
f 591 605 592
f 111 125 124
f 111 112 125
f 592 605 606
f 592 606 593
f 112 126 125
f 112 113 126
f 593 606 607
f 593 607 594
f 113 127 126
f 113 114 127
f 594 607 608
f 594 608 595
f 114 128 127
f 114 115 128
f 595 608 609
f 595 609 596
f 115 129 128
f 115 116 129
f 596 609 610
f 596 610 597
f 116 130 129
f 116 117 130
f 597 610 611
f 597 611 598
f 118 132 131
f 118 119 132
f 599 612 613
f 599 613 600
f 119 133 132
f 119 120 133
f 600 613 614
f 600 614 601
f 120 134 133
f 120 121 134
f 601 614 615
f 601 615 602
f 121 135 134
f 121 122 135
f 602 615 616
f 602 616 603
f 122 136 135
f 122 123 136
f 603 616 617
f 603 617 604
f 123 137 136
f 123 124 137
f 604 617 618
f 604 618 605
f 124 138 137
f 124 125 138
f 605 618 619
f 605 619 606
f 125 139 138
f 125 126 139
f 606 619 620
f 606 620 607
f 126 140 139
f 126 127 140
f 607 620 621
f 607 621 608
f 127 141 140
f 127 128 141
f 608 621 622
f 608 622 609
f 128 142 141
f 128 129 142
f 609 622 623
f 609 623 610
f 129 143 142
f 129 130 143
f 610 623 624
f 610 624 611
f 131 145 144
f 131 132 145
f 612 625 626
f 612 626 613
f 132 146 145
f 132 133 146
f 613 626 627
f 613 627 614
f 133 147 146
f 133 134 147
f 614 627 628
f 614 628 615
f 134 148 147
f 134 135 148
f 615 628 629
f 615 629 616
f 135 149 148
f 135 136 149
f 616 629 630
f 616 630 617
f 136 150 149
f 136 137 150
f 617 630 631
f 617 631 618
f 137 151 150
f 137 138 151
f 618 631 632
f 618 632 619
f 138 152 151
f 138 139 152
f 619 632 633
f 619 633 620
f 139 153 152
f 139 140 153
f 620 633 634
f 620 634 621
f 140 154 153
f 140 141 154
f 621 634 635
f 621 635 622
f 141 155 154
f 141 142 155
f 622 635 636
f 622 636 623
f 142 156 155
f 142 143 156
f 623 636 637
f 623 637 624
f 144 158 157
f 144 145 158
f 625 638 639
f 625 639 626
f 145 159 158
f 145 146 159
f 626 639 640
f 626 640 627
f 146 160 159
f 146 147 160
f 627 640 641
f 627 641 628
f 147 161 160
f 147 148 161
f 628 641 642
f 628 642 629
f 148 162 161
f 148 149 162
f 629 642 643
f 629 643 630
f 149 163 162
f 149 150 163
f 630 643 644
f 630 644 631
f 150 164 163
f 150 151 164
f 631 644 645
f 631 645 632
f 151 165 164
f 151 152 165
f 632 645 646
f 632 646 633
f 152 166 165
f 152 153 166
f 633 646 647
f 633 647 634
f 153 167 166
f 153 154 167
f 634 647 648
f 634 648 635
f 154 168 167
f 154 155 168
f 635 648 649
f 635 649 636
f 155 169 168
f 155 156 169
f 636 649 650
f 636 650 637
f 157 171 170
f 157 158 171
f 638 651 652
f 638 652 639
f 158 172 171
f 158 159 172
f 639 652 653
f 639 653 640
f 159 173 172
f 159 160 173
f 640 653 654
f 640 654 641
f 160 174 173
f 160 161 174
f 641 654 655
f 641 655 642
f 161 175 174
f 161 162 175
f 642 655 656
f 642 656 643
f 162 176 175
f 162 163 176
f 643 656 657
f 643 657 644
f 163 177 176
f 163 164 177
f 644 657 658
f 644 658 645
f 164 178 177
f 164 165 178
f 645 658 659
f 645 659 646
f 165 179 178
f 165 166 179
f 646 659 660
f 646 660 647
f 166 180 179
f 166 167 180
f 647 660 661
f 647 661 648
f 167 181 180
f 167 168 181
f 648 661 662
f 648 662 649
f 168 182 181
f 168 169 182
f 649 662 663
f 649 663 650
f 170 184 183
f 170 171 184
f 651 664 665
f 651 665 652
f 171 185 184
f 171 172 185
f 652 665 666
f 652 666 653
f 172 186 185
f 172 173 186
f 653 666 667
f 653 667 654
f 173 187 186
f 173 174 187
f 654 667 668
f 654 668 655
f 174 188 187
f 174 175 188
f 655 668 669
f 655 669 656
f 175 189 188
f 175 176 189
f 656 669 670
f 656 670 657
f 176 190 189
f 176 177 190
f 657 670 671
f 657 671 658
f 177 191 190
f 177 178 191
f 658 671 672
f 658 672 659
f 178 192 191
f 178 179 192
f 659 672 673
f 659 673 660
f 179 193 192
f 179 180 193
f 660 673 674
f 660 674 661
f 180 194 193
f 180 181 194
f 661 674 675
f 661 675 662
f 181 195 194
f 181 182 195
f 662 675 676
f 662 676 663
f 183 197 196
f 183 184 197
f 664 677 678
f 664 678 665
f 184 198 197
f 184 185 198
f 665 678 679
f 665 679 666
f 185 199 198
f 185 186 199
f 666 679 680
f 666 680 667
f 186 200 199
f 186 187 200
f 667 680 681
f 667 681 668
f 187 201 200
f 187 188 201
f 668 681 682
f 668 682 669
f 188 202 201
f 188 189 202
f 669 682 683
f 669 683 670
f 189 203 202
f 189 190 203
f 670 683 684
f 670 684 671
f 190 204 203
f 190 191 204
f 671 684 685
f 671 685 672
f 191 205 204
f 191 192 205
f 672 685 686
f 672 686 673
f 192 206 205
f 192 193 206
f 673 686 687
f 673 687 674
f 193 207 206
f 193 194 207
f 674 687 688
f 674 688 675
f 194 208 207
f 194 195 208
f 675 688 689
f 675 689 676
f 196 210 209
f 196 197 210
f 677 690 691
f 677 691 678
f 197 211 210
f 197 198 211
f 678 691 692
f 678 692 679
f 198 212 211
f 198 199 212
f 679 692 693
f 679 693 680
f 199 213 212
f 199 200 213
f 680 693 694
f 680 694 681
f 200 214 213
f 200 201 214
f 681 694 695
f 681 695 682
f 201 215 214
f 201 202 215
f 682 695 696
f 682 696 683
f 202 216 215
f 202 203 216
f 683 696 697
f 683 697 684
f 203 217 216
f 203 204 217
f 684 697 698
f 684 698 685
f 204 218 217
f 204 205 218
f 685 698 699
f 685 699 686
f 205 219 218
f 205 206 219
f 686 699 700
f 686 700 687
f 206 220 219
f 206 207 220
f 687 700 701
f 687 701 688
f 207 221 220
f 207 208 221
f 688 701 702
f 688 702 689
f 209 223 222
f 209 210 223
f 690 703 704
f 690 704 691
f 210 224 223
f 210 211 224
f 691 704 705
f 691 705 692
f 211 225 224
f 211 212 225
f 692 705 706
f 692 706 693
f 212 226 225
f 212 213 226
f 693 706 707
f 693 707 694
f 213 227 226
f 213 214 227
f 694 707 708
f 694 708 695
f 214 228 227
f 214 215 228
f 695 708 709
f 695 709 696
f 215 229 228
f 215 216 229
f 696 709 710
f 696 710 697
f 216 230 229
f 216 217 230
f 697 710 711
f 697 711 698
f 217 231 230
f 217 218 231
f 698 711 712
f 698 712 699
f 218 232 231
f 218 219 232
f 699 712 713
f 699 713 700
f 219 233 232
f 219 220 233
f 700 713 714
f 700 714 701
f 220 234 233
f 220 221 234
f 701 714 715
f 701 715 702
f 222 236 235
f 222 223 236
f 703 716 717
f 703 717 704
f 223 237 236
f 223 224 237
f 704 717 718
f 704 718 705
f 224 238 237
f 224 225 238
f 705 718 719
f 705 719 706
f 225 239 238
f 225 226 239
f 706 719 720
f 706 720 707
f 226 240 239
f 226 227 240
f 707 720 721
f 707 721 708
f 227 241 240
f 227 228 241
f 708 721 722
f 708 722 709
f 228 242 241
f 228 229 242
f 709 722 723
f 709 723 710
f 229 243 242
f 229 230 243
f 710 723 724
f 710 724 711
f 230 244 243
f 230 231 244
f 711 724 725
f 711 725 712
f 231 245 244
f 231 232 245
f 712 725 726
f 712 726 713
f 232 246 245
f 232 233 246
f 713 726 727
f 713 727 714
f 233 247 246
f 233 234 247
f 714 727 728
f 714 728 715
f 235 249 248
f 235 236 249
f 716 729 730
f 716 730 717
f 236 250 249
f 236 237 250
f 717 730 731
f 717 731 718
f 237 251 250
f 237 238 251
f 718 731 732
f 718 732 719
f 238 252 251
f 238 239 252
f 719 732 733
f 719 733 720
f 239 253 252
f 239 240 253
f 720 733 734
f 720 734 721
f 240 254 253
f 240 241 254
f 721 734 735
f 721 735 722
f 241 255 254
f 241 242 255
f 722 735 736
f 722 736 723
f 242 256 255
f 242 243 256
f 723 736 737
f 723 737 724
f 243 257 256
f 243 244 257
f 724 737 738
f 724 738 725
f 244 258 257
f 244 245 258
f 725 738 739
f 725 739 726
f 245 259 258
f 245 246 259
f 726 739 740
f 726 740 727
f 246 260 259
f 246 247 260
f 727 740 741
f 727 741 728
f 248 262 261
f 248 249 262
f 729 742 743
f 729 743 730
f 249 263 262
f 249 250 263
f 730 743 744
f 730 744 731
f 250 264 263
f 250 251 264
f 731 744 745
f 731 745 732
f 251 265 264
f 251 252 265
f 732 745 746
f 732 746 733
f 252 266 265
f 252 253 266
f 733 746 747
f 733 747 734
f 253 267 266
f 253 254 267
f 734 747 748
f 734 748 735
f 254 268 267
f 254 255 268
f 735 748 749
f 735 749 736
f 255 269 268
f 255 256 269
f 736 749 750
f 736 750 737
f 256 270 269
f 256 257 270
f 737 750 751
f 737 751 738
f 257 271 270
f 257 258 271
f 738 751 752
f 738 752 739
f 258 272 271
f 258 259 272
f 739 752 753
f 739 753 740
f 259 273 272
f 259 260 273
f 740 753 754
f 740 754 741
f 261 275 274
f 261 262 275
f 742 755 756
f 742 756 743
f 262 276 275
f 262 263 276
f 743 756 757
f 743 757 744
f 263 277 276
f 263 264 277
f 744 757 758
f 744 758 745
f 264 278 277
f 264 265 278
f 745 758 759
f 745 759 746
f 265 279 278
f 265 266 279
f 746 759 760
f 746 760 747
f 266 280 279
f 266 267 280
f 747 760 761
f 747 761 748
f 267 281 280
f 267 268 281
f 748 761 762
f 748 762 749
f 268 282 281
f 268 269 282
f 749 762 763
f 749 763 750
f 269 283 282
f 269 270 283
f 750 763 764
f 750 764 751
f 270 284 283
f 270 271 284
f 751 764 765
f 751 765 752
f 271 285 284
f 271 272 285
f 752 765 766
f 752 766 753
f 272 286 285
f 272 273 286
f 753 766 767
f 753 767 754
f 274 288 287
f 274 275 288
f 755 768 769
f 755 769 756
f 275 289 288
f 275 276 289
f 756 769 770
f 756 770 757
f 276 290 289
f 276 277 290
f 757 770 771
f 757 771 758
f 277 291 290
f 277 278 291
f 758 771 772
f 758 772 759
f 278 292 291
f 278 279 292
f 759 772 773
f 759 773 760
f 279 293 292
f 279 280 293
f 760 773 774
f 760 774 761
f 280 294 293
f 280 281 294
f 761 774 775
f 761 775 762
f 281 295 294
f 281 282 295
f 762 775 776
f 762 776 763
f 282 296 295
f 282 283 296
f 763 776 777
f 763 777 764
f 283 297 296
f 283 284 297
f 764 777 778
f 764 778 765
f 284 298 297
f 284 285 298
f 765 778 779
f 765 779 766
f 285 299 298
f 285 286 299
f 766 779 780
f 766 780 767
f 287 301 300
f 287 288 301
f 768 781 782
f 768 782 769
f 288 302 301
f 288 289 302
f 769 782 783
f 769 783 770
f 289 303 302
f 289 290 303
f 770 783 784
f 770 784 771
f 290 304 303
f 290 291 304
f 771 784 785
f 771 785 772
f 291 305 304
f 291 292 305
f 772 785 786
f 772 786 773
f 292 306 305
f 292 293 306
f 773 786 787
f 773 787 774
f 293 307 306
f 293 294 307
f 774 787 788
f 774 788 775
f 294 308 307
f 294 295 308
f 775 788 789
f 775 789 776
f 295 309 308
f 295 296 309
f 776 789 790
f 776 790 777
f 296 310 309
f 296 297 310
f 777 790 791
f 777 791 778
f 297 311 310
f 297 298 311
f 778 791 792
f 778 792 779
f 298 312 311
f 298 299 312
f 779 792 793
f 779 793 780
f 300 314 313
f 300 301 314
f 781 794 795
f 781 795 782
f 301 315 314
f 301 302 315
f 782 795 796
f 782 796 783
f 302 316 315
f 302 303 316
f 783 796 797
f 783 797 784
f 303 317 316
f 303 304 317
f 784 797 798
f 784 798 785
f 304 318 317
f 304 305 318
f 785 798 799
f 785 799 786
f 305 319 318
f 305 306 319
f 786 799 800
f 786 800 787
f 306 320 319
f 306 307 320
f 787 800 801
f 787 801 788
f 307 321 320
f 307 308 321
f 788 801 802
f 788 802 789
f 308 322 321
f 308 309 322
f 789 802 803
f 789 803 790
f 309 323 322
f 309 310 323
f 790 803 804
f 790 804 791
f 310 324 323
f 310 311 324
f 791 804 805
f 791 805 792
f 311 325 324
f 311 312 325
f 792 805 806
f 792 806 793
f 313 327 326
f 313 314 327
f 794 807 808
f 794 808 795
f 314 328 327
f 314 315 328
f 795 808 809
f 795 809 796
f 315 329 328
f 315 316 329
f 796 809 810
f 796 810 797
f 316 330 329
f 316 317 330
f 797 810 811
f 797 811 798
f 317 331 330
f 317 318 331
f 798 811 812
f 798 812 799
f 318 332 331
f 318 319 332
f 799 812 813
f 799 813 800
f 319 333 332
f 319 320 333
f 800 813 814
f 800 814 801
f 320 334 333
f 320 321 334
f 801 814 815
f 801 815 802
f 321 335 334
f 321 322 335
f 802 815 816
f 802 816 803
f 322 336 335
f 322 323 336
f 803 816 817
f 803 817 804
f 323 337 336
f 323 324 337
f 804 817 818
f 804 818 805
f 324 338 337
f 324 325 338
f 805 818 819
f 805 819 806
f 326 340 339
f 326 327 340
f 807 820 821
f 807 821 808
f 327 341 340
f 327 328 341
f 808 821 822
f 808 822 809
f 328 342 341
f 328 329 342
f 809 822 823
f 809 823 810
f 329 343 342
f 329 330 343
f 810 823 824
f 810 824 811
f 330 344 343
f 330 331 344
f 811 824 825
f 811 825 812
f 331 345 344
f 331 332 345
f 812 825 826
f 812 826 813
f 332 346 345
f 332 333 346
f 813 826 827
f 813 827 814
f 333 347 346
f 333 334 347
f 814 827 828
f 814 828 815
f 334 348 347
f 334 335 348
f 815 828 829
f 815 829 816
f 335 349 348
f 335 336 349
f 816 829 830
f 816 830 817
f 336 350 349
f 336 337 350
f 817 830 831
f 817 831 818
f 337 351 350
f 337 338 351
f 818 831 832
f 818 832 819
f 339 353 352
f 339 340 353
f 820 833 834
f 820 834 821
f 340 354 353
f 340 341 354
f 821 834 835
f 821 835 822
f 341 355 354
f 341 342 355
f 822 835 836
f 822 836 823
f 342 356 355
f 342 343 356
f 823 836 837
f 823 837 824
f 343 357 356
f 343 344 357
f 824 837 838
f 824 838 825
f 344 358 357
f 344 345 358
f 825 838 839
f 825 839 826
f 345 359 358
f 345 346 359
f 826 839 840
f 826 840 827
f 346 360 359
f 346 347 360
f 827 840 841
f 827 841 828
f 347 361 360
f 347 348 361
f 828 841 842
f 828 842 829
f 348 362 361
f 348 349 362
f 829 842 843
f 829 843 830
f 349 363 362
f 349 350 363
f 830 843 844
f 830 844 831
f 350 364 363
f 350 351 364
f 831 844 845
f 831 845 832
f 352 366 365
f 352 353 366
f 833 846 847
f 833 847 834
f 353 367 366
f 353 354 367
f 834 847 848
f 834 848 835
f 354 368 367
f 354 355 368
f 835 848 849
f 835 849 836
f 355 369 368
f 355 356 369
f 836 849 850
f 836 850 837
f 356 370 369
f 356 357 370
f 837 850 851
f 837 851 838
f 357 371 370
f 357 358 371
f 838 851 852
f 838 852 839
f 358 372 371
f 358 359 372
f 839 852 853
f 839 853 840
f 359 373 372
f 359 360 373
f 840 853 854
f 840 854 841
f 360 374 373
f 360 361 374
f 841 854 855
f 841 855 842
f 361 375 374
f 361 362 375
f 842 855 856
f 842 856 843
f 362 376 375
f 362 363 376
f 843 856 857
f 843 857 844
f 363 377 376
f 363 364 377
f 844 857 858
f 844 858 845
f 365 379 378
f 365 366 379
f 846 859 860
f 846 860 847
f 366 380 379
f 366 367 380
f 847 860 861
f 847 861 848
f 367 381 380
f 367 368 381
f 848 861 862
f 848 862 849
f 368 382 381
f 368 369 382
f 849 862 863
f 849 863 850
f 369 383 382
f 369 370 383
f 850 863 864
f 850 864 851
f 370 384 383
f 370 371 384
f 851 864 865
f 851 865 852
f 371 385 384
f 371 372 385
f 852 865 866
f 852 866 853
f 372 386 385
f 372 373 386
f 853 866 867
f 853 867 854
f 373 387 386
f 373 374 387
f 854 867 868
f 854 868 855
f 374 388 387
f 374 375 388
f 855 868 869
f 855 869 856
f 375 389 388
f 375 376 389
f 856 869 870
f 856 870 857
f 376 390 389
f 376 377 390
f 857 870 871
f 857 871 858
f 378 392 391
f 378 379 392
f 859 872 873
f 859 873 860
f 379 393 392
f 379 380 393
f 860 873 874
f 860 874 861
f 380 394 393
f 380 381 394
f 861 874 875
f 861 875 862
f 381 395 394
f 381 382 395
f 862 875 876
f 862 876 863
f 382 396 395
f 382 383 396
f 863 876 877
f 863 877 864
f 383 397 396
f 383 384 397
f 864 877 878
f 864 878 865
f 384 398 397
f 384 385 398
f 865 878 879
f 865 879 866
f 385 399 398
f 385 386 399
f 866 879 880
f 866 880 867
f 386 400 399
f 386 387 400
f 867 880 881
f 867 881 868
f 387 401 400
f 387 388 401
f 868 881 882
f 868 882 869
f 388 402 401
f 388 389 402
f 869 882 883
f 869 883 870
f 389 403 402
f 389 390 403
f 870 883 884
f 870 884 871
f 391 405 404
f 391 392 405
f 872 885 886
f 872 886 873
f 392 406 405
f 392 393 406
f 873 886 887
f 873 887 874
f 393 407 406
f 393 394 407
f 874 887 888
f 874 888 875
f 394 408 407
f 394 395 408
f 875 888 889
f 875 889 876
f 395 409 408
f 395 396 409
f 876 889 890
f 876 890 877
f 396 410 409
f 396 397 410
f 877 890 891
f 877 891 878
f 397 411 410
f 397 398 411
f 878 891 892
f 878 892 879
f 398 412 411
f 398 399 412
f 879 892 893
f 879 893 880
f 399 413 412
f 399 400 413
f 880 893 894
f 880 894 881
f 400 414 413
f 400 401 414
f 881 894 895
f 881 895 882
f 401 415 414
f 401 402 415
f 882 895 896
f 882 896 883
f 402 416 415
f 402 403 416
f 883 896 897
f 883 897 884
f 404 418 417
f 404 405 418
f 885 898 899
f 885 899 886
f 405 419 418
f 405 406 419
f 886 899 900
f 886 900 887
f 406 420 419
f 406 407 420
f 887 900 901
f 887 901 888
f 407 421 420
f 407 408 421
f 888 901 902
f 888 902 889
f 408 422 421
f 408 409 422
f 889 902 903
f 889 903 890
f 409 423 422
f 409 410 423
f 890 903 904
f 890 904 891
f 410 424 423
f 410 411 424
f 891 904 905
f 891 905 892
f 411 425 424
f 411 412 425
f 892 905 906
f 892 906 893
f 412 426 425
f 412 413 426
f 893 906 907
f 893 907 894
f 413 427 426
f 413 414 427
f 894 907 908
f 894 908 895
f 414 428 427
f 414 415 428
f 895 908 909
f 895 909 896
f 415 429 428
f 415 416 429
f 896 909 910
f 896 910 897
f 417 431 430
f 417 418 431
f 898 911 912
f 898 912 899
f 418 432 431
f 418 419 432
f 899 912 913
f 899 913 900
f 419 433 432
f 419 420 433
f 900 913 914
f 900 914 901
f 420 434 433
f 420 421 434
f 901 914 915
f 901 915 902
f 421 435 434
f 421 422 435
f 902 915 916
f 902 916 903
f 422 436 435
f 422 423 436
f 903 916 917
f 903 917 904
f 423 437 436
f 423 424 437
f 904 917 918
f 904 918 905
f 424 438 437
f 424 425 438
f 905 918 919
f 905 919 906
f 425 439 438
f 425 426 439
f 906 919 920
f 906 920 907
f 426 440 439
f 426 427 440
f 907 920 921
f 907 921 908
f 427 441 440
f 427 428 441
f 908 921 922
f 908 922 909
f 428 442 441
f 428 429 442
f 909 922 923
f 909 923 910
f 430 444 443
f 430 431 444
f 911 924 925
f 911 925 912
f 431 445 444
f 431 432 445
f 912 925 926
f 912 926 913
f 432 446 445
f 432 433 446
f 913 926 927
f 913 927 914
f 433 447 446
f 433 434 447
f 914 927 928
f 914 928 915
f 434 448 447
f 434 435 448
f 915 928 929
f 915 929 916
f 435 449 448
f 435 436 449
f 916 929 930
f 916 930 917
f 436 450 449
f 436 437 450
f 917 930 931
f 917 931 918
f 437 451 450
f 437 438 451
f 918 931 932
f 918 932 919
f 438 452 451
f 438 439 452
f 919 932 933
f 919 933 920
f 439 453 452
f 439 440 453
f 920 933 934
f 920 934 921
f 440 454 453
f 440 441 454
f 921 934 935
f 921 935 922
f 441 455 454
f 441 442 455
f 922 935 936
f 922 936 923
f 443 457 456
f 443 444 457
f 924 937 938
f 924 938 925
f 444 458 457
f 444 445 458
f 925 938 939
f 925 939 926
f 445 459 458
f 445 446 459
f 926 939 940
f 926 940 927
f 446 460 459
f 446 447 460
f 927 940 941
f 927 941 928
f 447 461 460
f 447 448 461
f 928 941 942
f 928 942 929
f 448 462 461
f 448 449 462
f 929 942 943
f 929 943 930
f 449 463 462
f 449 450 463
f 930 943 944
f 930 944 931
f 450 464 463
f 450 451 464
f 931 944 945
f 931 945 932
f 451 465 464
f 451 452 465
f 932 945 946
f 932 946 933
f 452 466 465
f 452 453 466
f 933 946 947
f 933 947 934
f 453 467 466
f 453 454 467
f 934 947 948
f 934 948 935
f 454 468 467
f 454 455 468
f 935 948 949
f 935 949 936
f 456 470 469
f 456 457 470
f 937 950 951
f 937 951 938
f 457 471 470
f 457 458 471
f 938 951 952
f 938 952 939
f 458 472 471
f 458 459 472
f 939 952 953
f 939 953 940
f 459 473 472
f 459 460 473
f 940 953 954
f 940 954 941
f 460 474 473
f 460 461 474
f 941 954 955
f 941 955 942
f 461 475 474
f 461 462 475
f 942 955 956
f 942 956 943
f 462 476 475
f 462 463 476
f 943 956 957
f 943 957 944
f 463 477 476
f 463 464 477
f 944 957 958
f 944 958 945
f 464 478 477
f 464 465 478
f 945 958 959
f 945 959 946
f 465 479 478
f 465 466 479
f 946 959 960
f 946 960 947
f 466 480 479
f 466 467 480
f 947 960 961
f 947 961 948
f 467 481 480
f 467 468 481
f 948 961 962
f 948 962 949
f 1 483 2
f 1 482 483
f 469 470 951
f 469 951 950
f 2 484 3
f 2 483 484
f 470 471 952
f 470 952 951
f 3 485 4
f 3 484 485
f 471 472 953
f 471 953 952
f 4 486 5
f 4 485 486
f 472 473 954
f 472 954 953
f 5 487 6
f 5 486 487
f 473 474 955
f 473 955 954
f 6 488 7
f 6 487 488
f 474 475 956
f 474 956 955
f 7 489 8
f 7 488 489
f 475 476 957
f 475 957 956
f 8 490 9
f 8 489 490
f 476 477 958
f 476 958 957
f 9 491 10
f 9 490 491
f 477 478 959
f 477 959 958
f 10 492 11
f 10 491 492
f 478 479 960
f 478 960 959
f 11 493 12
f 11 492 493
f 479 480 961
f 479 961 960
f 12 494 13
f 12 493 494
f 480 481 962
f 480 962 961
f 1 14 495
f 1 495 482
f 13 507 26
f 13 494 507
f 14 27 508
f 14 508 495
f 26 520 39
f 26 507 520
f 27 40 521
f 27 521 508
f 39 533 52
f 39 520 533
f 40 53 534
f 40 534 521
f 52 546 65
f 52 533 546
f 53 66 547
f 53 547 534
f 65 559 78
f 65 546 559
f 66 79 560
f 66 560 547
f 78 572 91
f 78 559 572
f 79 92 573
f 79 573 560
f 91 585 104
f 91 572 585
f 92 105 586
f 92 586 573
f 104 598 117
f 104 585 598
f 105 118 599
f 105 599 586
f 117 611 130
f 117 598 611
f 118 131 612
f 118 612 599
f 130 624 143
f 130 611 624
f 131 144 625
f 131 625 612
f 143 637 156
f 143 624 637
f 144 157 638
f 144 638 625
f 156 650 169
f 156 637 650
f 157 170 651
f 157 651 638
f 169 663 182
f 169 650 663
f 170 183 664
f 170 664 651
f 182 676 195
f 182 663 676
f 183 196 677
f 183 677 664
f 195 689 208
f 195 676 689
f 196 209 690
f 196 690 677
f 208 702 221
f 208 689 702
f 209 222 703
f 209 703 690
f 221 715 234
f 221 702 715
f 222 235 716
f 222 716 703
f 234 728 247
f 234 715 728
f 235 248 729
f 235 729 716
f 247 741 260
f 247 728 741
f 248 261 742
f 248 742 729
f 260 754 273
f 260 741 754
f 261 274 755
f 261 755 742
f 273 767 286
f 273 754 767
f 274 287 768
f 274 768 755
f 286 780 299
f 286 767 780
f 287 300 781
f 287 781 768
f 299 793 312
f 299 780 793
f 300 313 794
f 300 794 781
f 312 806 325
f 312 793 806
f 313 326 807
f 313 807 794
f 325 819 338
f 325 806 819
f 326 339 820
f 326 820 807
f 338 832 351
f 338 819 832
f 339 352 833
f 339 833 820
f 351 845 364
f 351 832 845
f 352 365 846
f 352 846 833
f 364 858 377
f 364 845 858
f 365 378 859
f 365 859 846
f 377 871 390
f 377 858 871
f 378 391 872
f 378 872 859
f 390 884 403
f 390 871 884
f 391 404 885
f 391 885 872
f 403 897 416
f 403 884 897
f 404 417 898
f 404 898 885
f 416 910 429
f 416 897 910
f 417 430 911
f 417 911 898
f 429 923 442
f 429 910 923
f 430 443 924
f 430 924 911
f 442 936 455
f 442 923 936
f 443 456 937
f 443 937 924
f 455 949 468
f 455 936 949
f 456 469 950
f 456 950 937
f 468 962 481
f 468 949 962
