#usda 1.0
(
    defaultPrim = "Shapes"
    metersPerUnit = 1
    upAxis = "Z"
)

def Xform "Shapes"
{
    def Mesh "paper_stack" (
        prepend apiSchemas = ["MaterialBindingAPI"]
    )
    {
        float3[] extent = [(-0.5, -0.5, -0.5), (0.5, 0.5, 0.5)]
        int[] faceVertexCounts = [4, 4, 4, 4, 4, 4, 4, 4, 4, 4, 4, 4, 4, 4, 4, 4, 4, 4, 4, 4, 4, 4, 4, 4, 4, 4, 4, 4, 4, 4]
        int[] faceVertexIndices = [0, 1, 2, 3, 4, 5, 6, 7, 8, 9, 10, 11, 12, 13, 14, 15, 16, 17, 18, 19, 20, 21, 22, 23, 24, 25, 26, 27, 28, 29, 30, 31, 32, 33, 34, 35, 36, 37, 38, 39, 40, 41, 42, 43, 44, 45, 46, 47, 48, 49, 50, 51, 52, 53, 54, 55, 56, 57, 58, 59, 60, 61, 62, 63, 64, 65, 66, 67, 68, 69, 70, 71, 72, 73, 74, 75, 76, 77, 78, 79, 80, 81, 82, 83, 84, 85, 86, 87, 88, 89, 90, 91, 92, 93, 94, 95, 96, 97, 98, 99, 100, 101, 102, 103, 104, 105, 106, 107, 108, 109, 110, 111, 112, 113, 114, 115, 116, 117, 118, 119]
        rel material:binding = </Shapes/Looks/page>
        normal3f[] normals = [(0, 0, 1), (0, 0, 1), (0, 0, 1), (0, 0, 1), (0, 0, -1), (0, 0, -1), (0, 0, -1), (0, 0, -1), (-0.033357278, -0.9994435, 0), (-0.033357278, -0.9994435, 0), (-0.033357278, -0.9994435, 0), (-0.033357278, -0.9994435, 0), (0.9981595, -0.060642797, 0), (0.9981595, -0.060642797, 0), (0.9981595, -0.060642797, 0), (0.9981595, -0.060642797, 0), (0.033357278, 0.9994435, 0), (0.033357278, 0.9994435, 0), (0.033357278, 0.9994435, 0), (0.033357278, 0.9994435, 0), (-0.9981595, 0.060642797, 0), (-0.9981595, 0.060642797, 0), (-0.9981595, 0.060642797, 0), (-0.9981595, 0.060642797, 0), (0, 0, 1), (0, 0, 1), (0, 0, 1), (0, 0, 1), (0, 0, -1), (0, 0, -1), (0, 0, -1), (0, 0, -1), (0.02223672, -0.99975276, 0), (0.02223672, -0.99975276, 0), (0.02223672, -0.99975276, 0), (0.02223672, -0.99975276, 0), (0.9991814, 0.040454734, 0), (0.9991814, 0.040454734, 0), (0.9991814, 0.040454734, 0), (0.9991814, 0.040454734, 0), (-0.02223672, 0.99975276, 0), (-0.02223672, 0.99975276, 0), (-0.02223672, 0.99975276, 0), (-0.02223672, 0.99975276, 0), (-0.9991814, -0.040454734, 0), (-0.9991814, -0.040454734, 0), (-0.9991814, -0.040454734, 0), (-0.9991814, -0.040454734, 0), (0, 0, 1), (0, 0, 1), (0, 0, 1), (0, 0, 1), (0, 0, -1), (0, 0, -1), (0, 0, -1), (0, 0, -1), (-0.011117919, -0.9999382, 0), (-0.011117919, -0.9999382, 0), (-0.011117919, -0.9999382, 0), (-0.011117919, -0.9999382, 0), (0.99979526, -0.02023524, 0), (0.99979526, -0.02023524, 0), (0.99979526, -0.02023524, 0), (0.99979526, -0.02023524, 0), (0.011117919, 0.9999382, 0), (0.011117919, 0.9999382, 0), (0.011117919, 0.9999382, 0), (0.011117919, 0.9999382, 0), (-0.99979526, 0.02023524, 0), (-0.99979526, 0.02023524, 0), (-0.99979526, 0.02023524, 0), (-0.99979526, 0.02023524, 0), (0, 0, 1), (0, 0, 1), (0, 0, 1), (0, 0, 1), (0, 0, -1), (0, 0, -1), (0, 0, -1), (0, 0, -1), (0.03706467, -0.9993129, 0), (0.03706467, -0.9993129, 0), (0.03706467, -0.9993129, 0), (0.03706467, -0.9993129, 0), (0.9977286, 0.067362465, 0), (0.9977286, 0.067362465, 0), (0.9977286, 0.067362465, 0), (0.9977286, 0.067362465, 0), (-0.03706467, 0.9993129, 0), (-0.03706467, 0.9993129, 0), (-0.03706467, 0.9993129, 0), (-0.03706467, 0.9993129, 0), (-0.9977286, -0.067362465, 0), (-0.9977286, -0.067362465, 0), (-0.9977286, -0.067362465, 0), (-0.9977286, -0.067362465, 0), (0, 0, 1), (0, 0, 1), (0, 0, 1), (0, 0, 1), (0, 0, -1), (0, 0, -1), (0, 0, -1), (0, 0, -1), (0, -1, 0), (0, -1, 0), (0, -1, 0), (0, -1, 0), (1, 0, 0), (1, 0, 0), (1, 0, 0), (1, 0, 0), (0, 1, 0), (0, 1, 0), (0, 1, 0), (0, 1, 0), (-1, 0, 0), (-1, 0, 0), (-1, 0, 0), (-1, 0, 0)] (
            interpolation = "faceVarying"
        )
        point3f[] points = [(-0.4707796, -0.4695393, -0.30769232), (0.4418767, -0.5, -0.30769232), (0.5, 0.45668942, -0.30769232), (-0.4126563, 0.48715007, -0.30769232), (-0.4126563, 0.48715007, -0.5), (0.5, 0.45668942, -0.5), (0.4418767, -0.5, -0.5), (-0.4707796, -0.4695393, -0.5), (-0.4707796, -0.4695393, -0.5), (0.4418767, -0.5, -0.5), (0.4418767, -0.5, -0.30769232), (-0.4707796, -0.4695393, -0.30769232), (0.4418767, -0.5, -0.5), (0.5, 0.45668942, -0.5), (0.5, 0.45668942, -0.30769232), (0.4418767, -0.5, -0.30769232), (0.5, 0.45668942, -0.5), (-0.4126563, 0.48715007, -0.5), (-0.4126563, 0.48715007, -0.30769232), (0.5, 0.45668942, -0.30769232), (-0.4126563, 0.48715007, -0.5), (-0.4707796, -0.4695393, -0.5), (-0.4707796, -0.4695393, -0.30769232), (-0.4126563, 0.48715007, -0.30769232), (-0.45304948, -0.47907218, -0.10576923), (0.4601206, -0.45876127, -0.10576923), (0.42136446, 0.4984667, -0.10576923), (-0.4918056, 0.47815576, -0.10576923), (-0.4918056, 0.47815576, -0.29807693), (0.42136446, 0.4984667, -0.29807693), (0.4601206, -0.45876127, -0.29807693), (-0.45304948, -0.47907218, -0.29807693), (-0.45304948, -0.47907218, -0.29807693), (0.4601206, -0.45876127, -0.29807693), (0.4601206, -0.45876127, -0.10576923), (-0.45304948, -0.47907218, -0.10576923), (0.4601206, -0.45876127, -0.29807693), (0.42136446, 0.4984667, -0.29807693), (0.42136446, 0.4984667, -0.10576923), (0.4601206, -0.45876127, -0.10576923), (0.42136446, 0.4984667, -0.29807693), (-0.4918056, 0.47815576, -0.29807693), (-0.4918056, 0.47815576, -0.10576923), (0.42136446, 0.4984667, -0.10576923), (-0.4918056, 0.47815576, -0.29807693), (-0.45304948, -0.47907218, -0.29807693), (-0.45304948, -0.47907218, -0.10576923), (-0.4918056, 0.47815576, -0.10576923), (-0.4605199, -0.45755115, 0.09615385), (0.4529585, -0.46770775, 0.09615385), (0.47233874, 0.4898434, 0.09615385), (-0.44113964, 0.5, 0.09615385), (-0.44113964, 0.5, -0.09615385), (0.47233874, 0.4898434, -0.09615385), (0.4529585, -0.46770775, -0.09615385), (-0.4605199, -0.45755115, -0.09615385), (-0.4605199, -0.45755115, -0.09615385), (0.4529585, -0.46770775, -0.09615385), (0.4529585, -0.46770775, 0.09615385), (-0.4605199, -0.45755115, 0.09615385), (0.4529585, -0.46770775, -0.09615385), (0.47233874, 0.4898434, -0.09615385), (0.47233874, 0.4898434, 0.09615385), (0.4529585, -0.46770775, 0.09615385), (0.47233874, 0.4898434, -0.09615385), (-0.44113964, 0.5, -0.09615385), (-0.44113964, 0.5, 0.09615385), (0.47233874, 0.4898434, 0.09615385), (-0.44113964, 0.5, -0.09615385), (-0.4605199, -0.45755115, -0.09615385), (-0.4605199, -0.45755115, 0.09615385), (-0.44113964, 0.5, 0.09615385), (-0.43542367, -0.4983528, 0.29807693), (0.47701576, -0.4645103, 0.29807693), (0.41243944, 0.49195176, 0.29807693), (-0.5, 0.45810926, 0.29807693), (-0.5, 0.45810926, 0.10576923), (0.41243944, 0.49195176, 0.10576923), (0.47701576, -0.4645103, 0.10576923), (-0.43542367, -0.4983528, 0.10576923), (-0.43542367, -0.4983528, 0.10576923), (0.47701576, -0.4645103, 0.10576923), (0.47701576, -0.4645103, 0.29807693), (-0.43542367, -0.4983528, 0.29807693), (0.47701576, -0.4645103, 0.10576923), (0.41243944, 0.49195176, 0.10576923), (0.41243944, 0.49195176, 0.29807693), (0.47701576, -0.4645103, 0.29807693), (0.41243944, 0.49195176, 0.10576923), (-0.5, 0.45810926, 0.10576923), (-0.5, 0.45810926, 0.29807693), (0.41243944, 0.49195176, 0.29807693), (-0.5, 0.45810926, 0.10576923), (-0.43542367, -0.4983528, 0.10576923), (-0.43542367, -0.4983528, 0.29807693), (-0.5, 0.45810926, 0.29807693), (-0.45958194, -0.47558108, 0.5), (0.45399922, -0.47558108, 0.5), (0.45399922, 0.4820778, 0.5), (-0.45958194, 0.4820778, 0.5), (-0.45958194, 0.4820778, 0.30769232), (0.45399922, 0.4820778, 0.30769232), (0.45399922, -0.47558108, 0.30769232), (-0.45958194, -0.47558108, 0.30769232), (-0.45958194, -0.47558108, 0.30769232), (0.45399922, -0.47558108, 0.30769232), (0.45399922, -0.47558108, 0.5), (-0.45958194, -0.47558108, 0.5), (0.45399922, -0.47558108, 0.30769232), (0.45399922, 0.4820778, 0.30769232), (0.45399922, 0.4820778, 0.5), (0.45399922, -0.47558108, 0.5), (0.45399922, 0.4820778, 0.30769232), (-0.45958194, 0.4820778, 0.30769232), (-0.45958194, 0.4820778, 0.5), (0.45399922, 0.4820778, 0.5), (-0.45958194, 0.4820778, 0.30769232), (-0.45958194, -0.47558108, 0.30769232), (-0.45958194, -0.47558108, 0.5), (-0.45958194, 0.4820778, 0.5)]
        texCoord2f[] primvars:st = [(0, 0), (1, 0), (1, 1), (0, 1), (0, 0), (1, 0), (1, 1), (0, 1), (0, 0), (1, 0), (1, 1), (0, 1), (0, 0), (1, 0), (1, 1), (0, 1), (0, 0), (1, 0), (1, 1), (0, 1), (0, 0), (1, 0), (1, 1), (0, 1), (0, 0), (1, 0), (1, 1), (0, 1), (0, 0), (1, 0), (1, 1), (0, 1), (0, 0), (1, 0), (1, 1), (0, 1), (0, 0), (1, 0), (1, 1), (0, 1), (0, 0), (1, 0), (1, 1), (0, 1), (0, 0), (1, 0), (1, 1), (0, 1), (0, 0), (1, 0), (1, 1), (0, 1), (0, 0), (1, 0), (1, 1), (0, 1), (0, 0), (1, 0), (1, 1), (0, 1), (0, 0), (1, 0), (1, 1), (0, 1), (0, 0), (1, 0), (1, 1), (0, 1), (0, 0), (1, 0), (1, 1), (0, 1), (0, 0), (1, 0), (1, 1), (0, 1), (0, 0), (1, 0), (1, 1), (0, 1), (0, 0), (1, 0), (1, 1), (0, 1), (0, 0), (1, 0), (1, 1), (0, 1), (0, 0), (1, 0), (1, 1), (0, 1), (0, 0), (1, 0), (1, 1), (0, 1), (0, 0), (1, 0), (1, 1), (0, 1), (0, 0), (1, 0), (1, 1), (0, 1), (0, 0), (1, 0), (1, 1), (0, 1), (0, 0), (1, 0), (1, 1), (0, 1), (0, 0), (1, 0), (1, 1), (0, 1), (0, 0), (1, 0), (1, 1), (0, 1)] (
            interpolation = "faceVarying"
        )
        uniform token subdivisionScheme = "none"

        def GeomSubset "surface_0" (
            prepend apiSchemas = ["MaterialBindingAPI"]
        )
        {
            uniform token elementType = "face"
            uniform token familyName = "materialBind"
            int[] indices = [0, 12, 24]
            rel material:binding = </Shapes/Looks/page>
        }

        def GeomSubset "surface_1" (
            prepend apiSchemas = ["MaterialBindingAPI"]
        )
        {
            uniform token elementType = "face"
            uniform token familyName = "materialBind"
            int[] indices = [6, 18]
            rel material:binding = </Shapes/Looks/page_b>
        }

        def GeomSubset "surface_2" (
            prepend apiSchemas = ["MaterialBindingAPI"]
        )
        {
            uniform token elementType = "face"
            uniform token familyName = "materialBind"
            int[] indices = [1, 2, 3, 4, 5, 7, 8, 9, 10, 11, 13, 14, 15, 16, 17, 19, 20, 21, 22, 23, 25, 26, 27, 28, 29]
            rel material:binding = </Shapes/Looks/paper>
        }
    }

    def Scope "Looks"
    {
        def Material "page"
        {
            token outputs:surface.connect = </Shapes/Looks/page/PreviewSurface.outputs:surface>

            def Shader "PreviewSurface"
            {
                uniform token info:id = "UsdPreviewSurface"
                color3f inputs:diffuseColor.connect = </Shapes/Looks/page/diffuse_tex.outputs:rgb>
                float inputs:metallic = 0
                float inputs:roughness = 0.75
                token outputs:surface
            }

            def Shader "st_reader"
            {
                uniform token info:id = "UsdPrimvarReader_float2"
                token inputs:varname = "st"
                float2 outputs:result
            }

            def Shader "diffuse_tex"
            {
                uniform token info:id = "UsdUVTexture"
                asset inputs:file = @./tex/paper_page0.jpg@
                token inputs:sourceColorSpace = "sRGB"
                float2 inputs:st.connect = </Shapes/Looks/page/st_reader.outputs:result>
                token inputs:wrapS = "clamp"
                token inputs:wrapT = "clamp"
                float outputs:g
                float3 outputs:rgb
            }
        }

        def Material "page_b"
        {
            token outputs:surface.connect = </Shapes/Looks/page_b/PreviewSurface.outputs:surface>

            def Shader "PreviewSurface"
            {
                uniform token info:id = "UsdPreviewSurface"
                color3f inputs:diffuseColor.connect = </Shapes/Looks/page_b/diffuse_tex.outputs:rgb>
                float inputs:metallic = 0
                float inputs:roughness = 0.75
                token outputs:surface
            }

            def Shader "st_reader"
            {
                uniform token info:id = "UsdPrimvarReader_float2"
                token inputs:varname = "st"
                float2 outputs:result
            }

            def Shader "diffuse_tex"
            {
                uniform token info:id = "UsdUVTexture"
                asset inputs:file = @./tex/paper_page1.jpg@
                token inputs:sourceColorSpace = "sRGB"
                float2 inputs:st.connect = </Shapes/Looks/page_b/st_reader.outputs:result>
                token inputs:wrapS = "clamp"
                token inputs:wrapT = "clamp"
                float outputs:g
                float3 outputs:rgb
            }
        }

        def Material "paper"
        {
            token outputs:surface.connect = </Shapes/Looks/paper/PreviewSurface.outputs:surface>

            def Shader "PreviewSurface"
            {
                uniform token info:id = "UsdPreviewSurface"
                color3f inputs:diffuseColor = (0.86, 0.86, 0.84)
                float inputs:metallic = 0
                float inputs:roughness = 0.8
                token outputs:surface
            }
        }
    }
}

